<?xml version="1.0" encoding="UTF-8"?>
<svg id="Capa_1" data-name="Capa 1" xmlns="http://www.w3.org/2000/svg" viewBox="0 0 1400.6 366.33">
  <defs>
    <style>
      .cls-1 {
        fill: #fff;
      }

      .cls-2 {
        fill: #ff5f00;
      }
    </style>
  </defs>
  <path class="cls-2" d="m618.05,185.6c0-19.95-.24-39.91.09-59.86.21-12.98,2.18-25.84,6.86-38.01,7.97-20.71,24.54-30.62,45.22-35.79,17.02-4.25,34.31-4.26,51.55-4.43,27.63-.27,55.28.02,82.9.68,17.56.41,34.68,3.47,50.32,12.31,1.27.72,3.7.66,4.98-.08,14.98-8.63,31.5-11.68,48.33-12.14,29.45-.82,58.93-1.04,88.4-.74,15.74.16,31.48.62,47.08,4.24,29.74,6.9,46.42,23.77,50.6,53.95,1.66,11.97,2.59,24.12,2.71,36.2.35,34.92.01,69.84.25,104.76.03,5.01-1.57,6.09-6.22,6.01-14.65-.26-29.31-.26-43.96,0-4.79.09-6.54-.92-6.51-6.26.27-37.25.2-74.5.08-111.75-.02-5.29-.45-10.66-1.48-15.84-2.81-14.17-12.92-22.7-29.63-23.04-30.77-.61-61.56-.3-92.34-.06-4.36.03-8.81,1.57-13.05,2.93-10.98,3.52-15.86,12.12-17.56,22.73-.92,5.71-1.18,11.58-1.2,17.38-.1,35.92-.14,71.84.05,107.76.03,4.85-1.43,6.23-6.21,6.14-14.65-.28-29.31-.26-43.96,0-4.6.08-5.98-1.43-5.95-5.97.16-32.93.12-65.85.05-98.78-.02-7.31-.25-14.62-.69-21.91-1.15-18.87-12.03-29.94-31.49-30.28-30.44-.54-60.9-.51-91.33.06-11.18.21-22.19,3.47-27.4,14.92-2.4,5.28-3.68,11.45-3.89,17.28-.67,19.43-.72,38.88-.83,58.32-.12,20.12-.13,40.24.05,60.36.04,4.53-1.39,6.07-6,5.99-14.82-.25-29.64-.25-44.46,0-4.49.08-5.58-1.42-5.54-5.73.21-20.45.09-40.91.09-61.36.03,0,.05,0,.08,0Z"/>
  <path class="cls-2" d="m205.33,151.37c0-15.42-.08-30.19.18-44.95.02-.92,2.65-2.54,4.1-2.58,8.99-.24,17.98-.13,26.97-.13,17.32,0,34.64.09,51.96-.07,3.97-.04,5.66,1.03,5.61,5.3-.29,23.61.29,47.24-.79,70.81-.52,11.27-3.06,22.71-6.45,33.53-5.42,17.31-18.66,27.37-35.49,32.84-15.17,4.93-30.88,6.46-46.76,6.47-41.13,0-82.27.21-123.4-.24-16.16-.18-32.09-2.72-47.01-9.72-17.75-8.33-27.57-22.73-30.65-41.45-2.13-12.88-3.27-26.05-3.42-39.11-.34-30.25-.24-60.53.56-90.78.35-13.41,2.94-26.75,9.57-38.82,8.43-15.35,22.14-23.87,38.7-27.17C62.63,2.58,76.62.46,90.47.34,154.25-.17,218.03.18,281.81,0c5.11-.01,6.56,1.4,6.41,6.41-.34,11.63-.1,23.28-.11,34.92,0,6.61-.03,6.65-6.64,6.65-60.45,0-120.9-.01-181.35.04-5.32,0-10.65.25-15.94.77-17.09,1.68-27.75,12.27-28.04,29.86-.55,32.42-.81,64.87.13,97.27.53,18.12,7.98,26.72,30.38,29.15,3.3.36,6.64.49,9.97.5,33.64.04,67.28.13,100.92-.08,6.43-.04,12.94-.93,19.27-2.17,11.53-2.27,17.85-10.33,19.62-21.27,1.48-9.11,1.34-18.51,1.54-27.79.02-.93-2.53-2.72-3.92-2.76-9.3-.25-18.62-.13-28.72-.13Z"/>
  <path class="cls-2" d="m1138.45,86.73c-.2-1.96-.46-3.41-.47-4.86-.04-9.64.12-19.29-.09-28.93-.09-3.9,1.2-5.14,5.14-5.12,23.64.15,47.29.06,70.93.08,36.46.04,72.93-.2,109.39.3,16.91.23,33.27,3.78,48.14,12.62,15.75,9.37,24.63,23.61,26.39,41.21,3.43,34.43,4.18,69.07-1.02,103.38-3.08,20.3-15.51,34.07-35.23,40.71-14.67,4.94-29.92,6.34-45.25,6.4-43.29.16-86.58.2-129.87-.02-16.58-.09-32.87-2.22-47.44-11.17-10.81-6.64-17.27-16.64-18.08-28.89-1.05-15.84-1.31-31.9.09-47.69,1.36-15.42,10.37-26.5,25.17-32.47,13.07-5.27,26.81-6.58,40.61-6.65,49.78-.24,99.57-.09,149.35-.1,8.34,0,8.66-.04,8.01-8.29-1.54-19.71-5.95-24.95-19.89-28.7-5.22-1.41-10.85-1.74-16.3-1.75-50.78-.13-101.57-.07-152.35-.07-5.63,0-11.26,0-17.22,0Zm130.36,72.81c-22.15,0-44.3-.04-66.44.04-3.98.01-7.98.31-11.92.86-8.74,1.22-13.55,6.3-14.36,15.21-.48,5.28-.69,10.6-.71,15.9-.05,16.83,6.02,23.07,22.96,23.79,1.5.06,3,.03,4.5.03,33.64,0,67.28.06,100.91-.06,5.47-.02,10.97-.61,16.39-1.39,11.42-1.63,19.87-7.39,21.82-19.25,1.55-9.43,1.79-19.1,2.25-28.68.3-6.14-.21-6.43-6.47-6.44-22.98-.02-45.96,0-68.94-.01Z"/>
  <path class="cls-2" d="m432.63,48.07c29.48,0,58.96-.35,88.43.14,17.1.28,33.62,3.86,48.58,12.91,14.85,8.98,23.59,22.5,25.63,39.1,4.15,33.74,4.15,67.77-.11,101.45-3.15,24.9-16.14,40.92-45.75,47.03-11.49,2.37-23.39,3.62-35.12,3.73-43.46.43-86.93.3-130.4.1-15.39-.07-30.48-2.2-44.41-9.53-11.76-6.19-19.55-16.02-20.56-28.82-1.34-16.96-1.72-34.27.15-51.13,2.17-19.52,16.22-29.89,34.57-33.79,10.34-2.2,21.07-3.46,31.64-3.54,49.79-.36,99.59-.16,149.38-.16,7.23,0,7.92-.12,7.01-7.08-.95-7.27-2.34-14.87-5.51-21.36-3.24-6.64-10.94-8.32-17.92-9.33-5.74-.83-11.61-1-17.42-1-52.79-.07-105.59-.04-158.38-.04q-6.52,0-6.54-6.55c-.01-8.81.21-17.64-.09-26.44-.16-4.54,1.26-5.96,5.89-5.93,30.31.19,60.62.1,90.93.1,0,.06,0,.11,0,.17Zm33.59,111.47c-20.98,0-41.96-.05-62.94.03-4.81.02-9.63.3-14.42.76-8.24.8-13.38,4.87-14.83,13.04-1.07,5.99-.69,12.24-.89,18.37-.56,17.11,5.57,21.8,22.55,23.55,1.81.19,3.66.06,5.49.06,32.64,0,65.27.07,97.91-.06,6.13-.02,12.3-.56,18.39-1.38,11.36-1.53,20.01-7.01,21.95-18.99,1.53-9.43,1.88-19.08,2.36-28.65.33-6.59-.04-6.73-6.63-6.73-22.98-.02-45.96,0-68.94,0Z"/>
  <path class="cls-1" d="m663.58,301.79h80.62v10.23c-1.96,0-3.91,0-5.86,0-18.65,0-37.31.15-55.96-.1-4.74-.06-6.01,1.56-5.86,6.04.4,11.91-1.37,9.96,10.07,10.04,15.99.11,31.98.03,47.97.03h5.27c.36.99.65,1.44.66,1.89.17,10.63.77,8.8-8.55,8.86-16.66.11-33.31.14-49.97-.05-4.05-.05-5.52,1.05-5.47,5.29.14,10.64-.06,10.64,10.49,10.64,17.16,0,34.31,0,51.47,0h5.8v10.93c-1.77.09-3.39.25-5.02.25-23.48.02-46.97-.11-70.45.11-4.48.04-5.64-1.34-5.59-5.66.22-17.79.08-35.59.1-53.39,0-1.61.18-3.23.29-5.11Z"/>
  <path class="cls-1" d="m1396.83,364.49q-12.99,1.95-13.01-10.33c0-1.83-.06-3.65-.1-5.48-.06-3.23-1.91-5.11-4.94-5.13-16.94-.12-33.87-.06-51.35-.06v21.45c-3.95,0-7.4.26-10.77-.16-.98-.12-2.44-2.2-2.45-3.4-.16-18.95-.09-37.89-.14-56.84,0-2.76,1.09-3.86,3.85-3.86,20.8.07,41.61-.22,62.41.2,10.89.22,16.52,6.53,16.9,17.54.21,6.1.81,12.34-2.98,17.84-.47.68-.56,1.92-.31,2.74,3.78,12.38,3.99,13.99,2.89,25.48Zm-69.59-52.99c0,5.95.14,11.4-.05,16.84-.11,3.12,1.16,4,4.1,4.01,12.98.03,25.97.41,38.95.32,13.7-.09,14.65-1.39,13.58-14.99-.32-4.06-2.23-6.16-6.25-6.17-16.47-.03-32.95-.01-50.34-.01Z"/>
  <path class="cls-1" d="m626.49,365.81c0-5.19.05-9.8-.01-14.41-.07-5.56-1.59-7.18-7.09-7.21-15.14-.06-30.29.08-45.43-.1-3.69-.04-4.55,1.42-4.4,4.71.2,4.15-.11,8.31.09,12.46.16,3.38-.93,4.96-4.53,4.64-2.6-.23-5.23-.05-8.15-.05v-64.54c1.51,0,3.1,0,4.68,0,19.31,0,38.61-.02,57.92,0,14,.02,20.27,5.99,20.06,20.02-.08,5.17-1.88,10.3-2.69,15.47-.23,1.47.26,3.05.42,4.58.78,7.2,1.67,14.39,2.22,21.6.07.87-1.62,2.58-2.63,2.69-3.25.35-6.56.13-10.47.13Zm-29.3-53.4c-7.82,0-15.65.09-23.47-.04-2.95-.05-4.3.91-4.14,4,.17,3.32.03,6.65.03,9.97q0,6.93,6.73,6.94c12.15,0,24.3,0,36.45,0,13.8,0,14.33-.6,13.73-14.29-.2-4.53-2.33-6.63-6.86-6.59-7.49.07-14.98.02-22.47.02Z"/>
  <path class="cls-1" d="m838.48,347v-45.47c3.72,0,7.21-.35,10.54.2,1.06.17,2.43,2.72,2.45,4.2.18,14.46.11,28.93.11,43.4,0,4.32.26,8.67-.17,12.95-.13,1.29-2.05,3.19-3.38,3.41-5.21.88-9.68-1.15-13.8-4.37-17.03-13.29-34.13-26.48-51.22-39.7-.63-.48-1.36-.83-3.03-1.84v6.43c0,11.47-.17,22.95.09,34.42.1,4.18-1.21,5.76-5.36,5.26-2.11-.26-4.28-.05-6.92-.05-.18-1.95-.45-3.53-.46-5.1-.03-18.12.11-36.25-.11-54.37-.06-4.4,1.62-5.28,5.55-5.14,6.12.22,10.53,3.57,15.01,7.07,15.05,11.75,30.14,23.44,45.24,35.13,1.38,1.07,2.93,1.93,5.45,3.56Z"/>
  <path class="cls-1" d="m1195.24,340.03c0,5.71.41,11.5-.14,17.2-.41,4.19-3.9,6.46-7.82,7.45-2.72.68-5.58,1.09-8.38,1.12-13.48.11-26.96.16-40.44.01-9.45-.1-14.17-3.43-14.59-12.59-.64-14.05-.22-28.18.54-42.24.34-6.33,4.37-9.6,10.68-9.71,16.29-.26,32.58-.29,48.87.05,7.36.16,11.22,4.5,11.55,11.75.2,4.42.04,8.85.04,13.52h-11.62c0-3.26.04-6.21,0-9.17-.05-3.23-1.63-4.81-4.98-4.8-12.81.05-25.63.03-38.44.02-3.48,0-5.14,1.58-5.11,5.18.09,10.47.08,20.94,0,31.41-.02,2.93,1.13,4.23,4.12,4.21,13.31-.06,26.63-.06,39.94.01,3.25.02,4.51-1.55,4.48-4.56,0-.17,0-.33,0-.5q.5-10.08,11.29-8.37Z"/>
  <path class="cls-1" d="m1077.51,364.84c-9.35,3.07-13.82,1.6-18.14-6.35-1.85-3.41-4.24-4.42-8.03-4.32-10.98.3-21.99.5-32.96.04-4.48-.19-7.06,1.27-9.41,4.71-5.16,7.58-8.23,8.57-17.97,5.93,3.06-5.4,5.97-10.7,9.05-15.91,8.8-14.84,17.63-29.68,26.62-44.41.86-1.41,2.88-2.6,4.56-2.95,7.61-1.55,12.06,1.4,15.85,8.66,9.27,17.78,19.78,34.91,29.76,52.31.38.66.45,1.51.66,2.26Zm-59.23-21.99h32.55c-5.45-9.05-10.55-17.5-16.04-26.61-5.51,8.88-10.78,17.36-16.52,26.61Z"/>
  <path class="cls-1" d="m1210.45,364.49c9.91-16.71,19.45-32.81,28.99-48.9,1.18-1.99,2.43-3.96,3.46-6.03,2.89-5.86,6.52-9.75,14.1-8.45,3.41.59,5.6,1.19,7.38,4.38,10.6,18.92,21.43,37.71,32.18,56.56.32.56.5,1.19.75,1.79-8.02,3.39-14,1.56-18.07-5.77-1.74-3.12-3.87-4.42-7.52-4.36-11.63.21-23.28.19-34.91,0-3.39-.05-6.06.81-7.31,3.91-3.63,9.02-10.84,7.97-19.03,6.88Zm60.4-21.75c-5.57-9.27-10.67-17.73-16.3-27.1-5.66,9.2-10.93,17.77-16.66,27.1h32.97Z"/>
  <path class="cls-1" d="m871.86,312.41v-10.61h85.02c.12,1.84.18,3.76.4,5.65.39,3.4-.88,4.71-4.46,4.63-8.98-.21-17.98.1-26.95-.14-3.97-.11-5.17,1.26-5.12,5.15.18,14.45-.19,28.92.2,43.37.16,5.79-2.97,5.41-6.86,5.45-3.9.04-6.56-.03-6.42-5.38.37-14.28-.01-28.58.2-42.87.06-4.17-1.31-5.45-5.43-5.34-10.1.25-20.2.08-30.58.08Z"/>
</svg>