<?xml version="1.0" encoding="utf-8"?>
<!-- Generator: Adobe Illustrator 27.1.1, SVG Export Plug-In . SVG Version: 6.00 Build 0)  -->
<svg version="1.1" id="Layer_1" xmlns="http://www.w3.org/2000/svg" xmlns:xlink="http://www.w3.org/1999/xlink" x="0px" y="0px"
	 viewBox="0 0 31.5 31.5" style="enable-background:new 0 0 31.5 31.5;" xml:space="preserve">
<style type="text/css">
	.st0{fill:#231F20;}
</style>
<path id="Icon_ionic-ios-close" class="st0" d="M19.5,15.7L30.7,4.5c1-1,1.1-2.7,0-3.7c-1-1-2.7-1.1-3.7,0c0,0,0,0,0,0L15.8,12
	L4.5,0.8c-1-1-2.7-1.1-3.7,0s-1.1,2.7,0,3.7c0,0,0,0,0,0L12,15.7L0.8,27c-1,1-1,2.7,0,3.7c1,1,2.7,1,3.7,0l11.3-11.3L27,30.7
	c1,1,2.7,1,3.7,0c1-1,1-2.7,0-3.7L19.5,15.7z"/>
</svg>
