<?xml version="1.0" encoding="UTF-8"?>
<svg id="Capa_2" data-name="Capa 2" xmlns="http://www.w3.org/2000/svg" viewBox="0 0 317.42 109.13">
  <defs>
    <style>
      .cls-1 {
        fill: #fff;
      }
    </style>
  </defs>
  <g id="Capa_1-2" data-name="Capa 1">
    <g>
      <g>
        <path class="cls-1" d="m287.06,7.16l-.04,20.84h23.69c1.07,0,1.94.84,1.95,1.89l.03,6.85c0,1.05-.87,1.9-1.95,1.9h-23.5c-.02,18.77.06,32.73-.11,39.07-.04,1.46-.06,4.49,1.9,6.9,1.37,1.68,3.53,2.73,6.71,3.44,3.9.87,8.35,1.06,14.94-1.34.9-.33,1.92.02,2.39.83,1.35,2.32,2.71,4.65,4.11,7.06.55.94.17,2.13-.82,2.63-3.28,1.66-6.7,2.62-10.29,3.03-8.35.94-16.37.1-23.3-5.03-2.8-2.07-4.9-4.55-6.22-7.4-1.57-3.38-1.64-6.42-1.66-7.75-.08-6.47-.19-34.46-.04-72.94,0-1.04.88-1.89,1.95-1.89h8.33c1.08,0,1.95.85,1.95,1.9Z"/>
        <path class="cls-1" d="m254.19,100.36h7.04c1.4,0,2.54-1.11,2.54-2.47V30.48c0-1.36-1.14-2.47-2.54-2.47h-7.04c-1.4,0-2.54,1.11-2.54,2.47v67.41c0,1.36,1.14,2.47,2.54,2.47Z"/>
        <path class="cls-1" d="m261.25,5.28h-7.04c-1.42,0-2.56,1.12-2.56,2.49v6.88c0,1.38,1.15,2.49,2.56,2.49h7.04c1.42,0,2.56-1.12,2.56-2.49v-6.88c0-1.38-1.15-2.49-2.56-2.49Z"/>
        <path class="cls-1" d="m230.2,29.57l-18.11,52.55c-5.91-16.85-11.81-33.69-17.72-50.54-.75-2.13-2.81-3.57-5.13-3.57h-5.06c-2.33,0-4.4,1.45-5.14,3.59l-17.41,50.52c-6.14-17.51-12.28-35.02-18.41-52.53-.33-.94-1.24-1.58-2.27-1.58h-7.38c-1.63,0-2.78,1.55-2.28,3.06,11.57,34.36,20.09,59.15,21.67,63.47.31.86,1.11,2.94,3.15,4.4,1.6,1.14,3.63,1.68,5.99,1.59,1.26-.05,2.43-.32,3.47-.83,3.16-1.53,4.49-4.88,5.07-6.41,1.85-4.93,8.07-22.7,16.05-47.06,8.82,25.97,15.41,44.85,16.75,48.5.29.78.99,2.64,2.8,4.03,1.21.93,2.71,1.52,4.49,1.72,3.81.43,6.82-.94,8.82-4.1,1.31-2.08,1.81-3.96,1.89-4.32.8-3.48,8.92-27.25,20.65-61.03.51-1.48-.62-3.02-2.23-3.02h-7.44c-1.01,0-1.91.63-2.23,1.56Z"/>
      </g>
      <path class="cls-1" d="m53.39,8.48c2.67,0,4.84,2.1,4.84,4.7v18.2c0,2.6-2.17,4.7-4.84,4.7s-4.84-2.1-4.84-4.7V13.18c0-2.6,2.17-4.7,4.84-4.7m0-8.48c-7.48,0-13.56,5.91-13.56,13.18v18.2c0,7.27,6.08,13.18,13.56,13.18s13.56-5.91,13.56-13.18V13.18c0-7.27-6.08-13.18-13.56-13.18h0Z"/>
      <path class="cls-1" d="m53.39,109.13c-29.01,0-52.53-22.17-53.37-50.36-.49-16.45,6.89-31.88,20.07-42.11l2.49-1.93c1.2-.93,2.96-.74,3.92.43l3.97,4.83c.96,1.17.76,2.88-.44,3.81l-2.49,1.93c-10.4,8.07-16.15,20.3-15.57,33.29.94,21.07,18.73,37.99,40.41,38.49,23.31.53,42.45-17.74,42.45-40.28,0-12.32-5.69-23.8-15.61-31.5l-2.49-1.93c-1.2-.93-1.4-2.64-.44-3.81l3.97-4.83c.96-1.17,2.72-1.36,3.92-.43l2.49,1.93c12.77,9.91,20.1,24.7,20.1,40.57,0,28.62-23.95,51.9-53.39,51.9Z"/>
    </g>
  </g>
</svg>